Coordinates
version=1
nRows=14
nColumns=46
inDegrees=yes

Units are S.I. units (second, meters, Newtons, ...)
Angles are in degrees.

endheader
time	pelvis_tilt	pelvis_list	pelvis_rotation	pelvis_tx	pelvis_ty	pelvis_tz	bb_angle	bb_tx	bb_ty	bb_tz	hip_flexion_r	hip_adduction_r	hip_rotation_r	knee_angle_r	knee_angle_r_beta	ankle_angle_r	subtalar_angle_r	mtp_angle_r	crank_angle_r	hip_flexion_l	hip_adduction_l	hip_rotation_l	knee_angle_l	knee_angle_l_beta	ankle_angle_l	subtalar_angle_l	mtp_angle_l	crank_angle_l	lumbar_extension	lumbar_bending	lumbar_rotation	arm_flex_r	arm_add_r	arm_rot_r	elbow_flex_r	pro_sup_r	wrist_flex_r	wrist_dev_r	arm_flex_l	arm_add_l	arm_rot_l	elbow_flex_l	pro_sup_l	wrist_flex_l	wrist_dev_l
      0.00500000	    -14.49983612	     -5.70131425	      1.41390544	      0.13991188	      1.14918120	     -0.25113948	      0.00000000	      0.50000000	      0.00000000	      0.25000000	     81.69577612	     -5.00257602	     -5.17635196	    111.78424002	      1.95100304	      8.40995333	    -11.55827067	      0.00000000	      0.00000000	     40.14048747	     -7.53532546	      1.37079389	     29.21537093	      0.50990441	      8.47424315	      0.08358241	      0.00000000	      0.00000000	    -52.23827624	      4.62518231	      7.79327724	     89.73013329	     -6.56455961	     32.75061511	     26.62077578	     20.87505243	      0.00000000	      0.00000000	     88.00458595	      8.97861570	      9.82751051	     28.36603159	     21.14396620	      0.00000000	      0.00000000
      0.01000000	    -14.51495769	     -5.70832936	      1.44647029	      0.13988599	      1.14919283	     -0.25123687	      0.00000000	      0.50000000	      0.00000000	      0.25000000	     81.70039805	     -5.03192003	     -5.18227613	    111.77284541	      1.95080417	      8.39468920	    -11.58981374	      0.00000000	      0.00000000	     40.15302441	     -7.50971025	      1.42482249	     29.18935056	      0.50945027	      8.44097730	      0.00575522	      0.00000000	      0.00000000	    -52.21903494	      4.66652175	      7.76384527	     89.73130920	     -6.24802526	     31.46180320	     25.90553164	     24.37324426	      0.00000000	      0.00000000	     88.02665516	      8.95934776	      9.56805759	     27.59348532	     25.04158439	      0.00000000	      0.00000000
      0.01500000	    -14.47823930	     -5.70539657	      1.44704321	      0.13991468	      1.14930511	     -0.25124452	      0.00000000	      0.50000000	      0.00000000	      0.25000000	     81.64900599	     -5.01773513	     -5.17586659	    111.76358263	      1.95064250	      8.40110208	    -11.56959541	      0.00000000	      0.00000000	     40.11297912	     -7.52023272	      1.36227747	     29.19389924	      0.50952966	      8.48808982	      0.09336574	      0.00000000	      0.00000000	    -52.23781608	      4.66453312	      7.77548838	     89.73173454	     -6.51880811	     32.64639346	     25.91306980	     24.27331832	      0.00000000	      0.00000000	     88.05200731	      8.53215491	     11.10239251	     27.18378741	     26.30228283	      0.00000000	      0.00000000
      0.02000000	    -14.43553723	     -5.65387275	      1.46915522	      0.13994390	      1.14944978	     -0.25117677	      0.00000000	      0.50000000	      0.00000000	      0.25000000	     81.64250619	     -5.06124080	     -5.12905970	    111.76402084	      1.95065015	      8.25959578	    -11.62019739	      0.00000000	      0.00000000	     40.03569985	     -7.47901375	      1.30600460	     29.13196089	      0.50844864	      8.43876724	      0.15456579	      0.00000000	      0.00000000	    -52.28821568	      4.62795903	      7.70230170	     89.73206044	     -6.25594627	     31.59133102	     25.71055215	     25.69635261	      0.00000000	      0.00000000	     88.07102618	      8.58623463	     10.75249537	     27.02025403	     27.63665824	      0.00000000	      0.00000000
      0.02500000	    -14.47763260	     -5.64765167	      1.46501225	      0.13998417	      1.14935734	     -0.25128587	      0.00000000	      0.50000000	      0.00000000	      0.25000000	     81.68458868	     -5.06677310	     -5.10970150	    111.75474035	      1.95048817	      8.22791389	    -11.64313177	      0.00000000	      0.00000000	     40.05366952	     -7.44547321	      1.34214428	     29.08913057	      0.50770110	      8.43432660	      0.02967911	      0.00000000	      0.00000000	    -52.23948505	      4.65481853	      7.63071900	     89.73453432	     -6.10880329	     31.50370707	     25.55991776	     25.82151786	      0.00000000	      0.00000000	     87.99271672	      8.35348659	     11.01526011	     27.11010452	     28.16141997	      0.00000000	      0.00000000
      0.03000000	    -14.51326133	     -5.64941828	      1.42435254	      0.14003680	      1.14928952	     -0.25115449	      0.00000000	      0.50000000	      0.00000000	      0.25000000	     81.72586515	     -5.00897531	     -5.10221023	    111.75037331	      1.95041195	      8.20837090	    -11.67364412	      0.00000000	      0.00000000	     40.12948837	     -7.50952882	      1.18238970	     29.18306173	      0.50934051	      8.52863616	      0.27854513	      0.00000000	      0.00000000	    -52.14898674	      4.61370654	      7.58580122	     89.74426073	     -5.98132939	     32.22218120	     25.01556483	     25.62604948	      0.00000000	      0.00000000	     87.68002405	      8.23663252	     10.97189254	     27.69813478	     28.26979197	      0.00000000	      0.00000000
      0.03500000	    -14.43286184	     -5.61362870	      1.46590909	      0.14000763	      1.14955619	     -0.25133725	      0.00000000	      0.50000000	      0.00000000	      0.25000000	     81.63170648	     -5.07006411	     -5.06871394	    111.74166149	      1.95025990	      8.20338016	    -11.68674140	      0.00000000	      0.00000000	     39.98917022	     -7.41516577	      1.28699350	     29.07223510	      0.50740622	      8.43969563	      0.02597499	      0.00000000	      0.00000000	    -52.27283259	      4.61781213	      7.66263733	     89.73394133	     -6.29996463	     31.95891105	     25.70869904	     25.40221671	      0.00000000	      0.00000000	     88.04696907	      8.39544109	     11.35286483	     26.92437114	     28.19707855	      0.00000000	      0.00000000
      0.04000000	    -14.41932637	     -5.60685110	      1.48075309	      0.13996372	      1.14960243	     -0.25139219	      0.00000000	      0.50000000	      0.00000000	      0.25000000	     81.62189552	     -5.08746710	     -5.05899486	    111.73972842	      1.95022617	      8.19076843	    -11.68465565	      0.00000000	      0.00000000	     39.96444060	     -7.38155131	      1.33617886	     29.04126306	      0.50686566	      8.38137343	     -0.07992614	      0.00000000	      0.00000000	    -52.29616636	      4.63652307	      7.64319942	     89.73181733	     -6.15051234	     31.30027839	     25.69888269	     26.07852343	      0.00000000	      0.00000000	     88.08482098	      8.57836161	     10.77966999	     26.87426496	     28.43403760	      0.00000000	      0.00000000
      0.04500000	    -14.38820333	     -5.60128644	      1.46772324	      0.13996013	      1.14967392	     -0.25135280	      0.00000000	      0.50000000	      0.00000000	      0.25000000	     81.59521479	     -5.06425450	     -5.04790204	    111.73745321	      1.95018646	      8.13595603	    -11.71802334	      0.00000000	      0.00000000	     39.93499565	     -7.39781611	      1.27618214	     29.05706887	      0.50714152	      8.41200168	     -0.00813093	      0.00000000	      0.00000000	    -52.31639737	      4.61524826	      7.66351981	     89.73177518	     -6.34355895	     32.12259958	     25.85852694	     25.34318631	      0.00000000	      0.00000000	     88.09312711	      8.44231359	     11.47303154	     26.80939321	     28.37344881	      0.00000000	      0.00000000
      0.05000000	    -14.39718887	     -5.55082756	      1.45963166	      0.13995797	      1.14963942	     -0.25131139	      0.00000000	      0.50000000	      0.00000000	      0.25000000	     81.62925150	     -5.06235830	     -4.98653684	    111.75016050	      1.95040824	      8.12221360	    -11.75428892	      0.00000000	      0.00000000	     39.92433184	     -7.35170624	      1.25060282	     29.03032650	      0.50667478	      8.40890029	     -0.03324738	      0.00000000	      0.00000000	    -52.31650340	      4.58571527	      7.37461653	     89.73873972	     -5.78788385	     31.53317039	     25.46531846	     25.69100640	      0.00000000	      0.00000000	     87.72730512	      8.00146214	     11.28860002	     27.66779753	     28.89514682	      0.00000000	      0.00000000
      0.05500000	    -14.37242547	     -5.60914892	      1.51485289	      0.13987489	      1.14968340	     -0.25144023	      0.00000000	      0.50000000	      0.00000000	      0.25000000	     81.58822257	     -5.10906479	     -5.06304210	    111.74046788	      1.95023907	      8.11714141	    -11.73649498	      0.00000000	      0.00000000	     39.93029744	     -7.35483168	      1.36761292	     29.04764255	      0.50697700	      8.35716354	     -0.11052882	      0.00000000	      0.00000000	    -52.33350149	      4.66999571	      7.62240341	     89.73182330	     -6.19860177	     31.47555670	     25.54327321	     27.15684335	      0.00000000	      0.00000000	     88.06848288	      8.64277727	     10.65554926	     26.71301451	     29.79296094	      0.00000000	      0.00000000
      0.06000000	    -14.36711811	     -5.58530876	      1.51517488	      0.13982523	      1.14960647	     -0.25145378	      0.00000000	      0.50000000	      0.00000000	      0.25000000	     81.61237966	     -5.12267473	     -5.03354476	    111.76050381	      1.95058877	      8.08065220	    -11.74374756	      0.00000000	      0.00000000	     39.94039330	     -7.32346179	      1.36328418	     29.07953303	      0.50753360	      8.33542040	     -0.19785155	      0.00000000	      0.00000000	    -52.31845018	      4.63440479	      7.52194892	     89.73285937	     -6.54256932	     33.44928179	     26.09617829	     24.10888930	      0.00000000	      0.00000000	     88.04487781	      7.99970355	     12.81900247	     26.85132268	     28.82528214	      0.00000000	      0.00000000
      0.06500000	    -14.33632426	     -5.57885398	      1.52393744	      0.13978370	      1.14966482	     -0.25138168	      0.00000000	      0.50000000	      0.00000000	      0.25000000	     81.58205608	     -5.10840043	     -5.02675385	    111.76422306	      1.95065368	      8.08070256	    -11.75719962	      0.00000000	      0.00000000	     39.89997836	     -7.31652732	      1.37867495	     29.05263161	      0.50706408	      8.36555999	     -0.17346225	      0.00000000	      0.00000000	    -52.39769597	      4.65303644	      7.53834052	     89.72900196	     -6.34825824	     32.17643554	     25.96987494	     26.02894596	      0.00000000	      0.00000000	     88.07163298	      8.23108107	     12.04575806	     26.72860518	     29.71161228	      0.00000000	      0.00000000
      0.07000000	    -14.33524700	     -5.56826999	      1.55713144	      0.13968390	      1.14958674	     -0.25145082	      0.00000000	      0.50000000	      0.00000000	      0.25000000	     81.60663172	     -5.15170920	     -5.02268884	    111.78099323	      1.95094637	      8.03053525	    -11.77320460	      0.00000000	      0.00000000	     39.93556988	     -7.28251086	      1.40503659	     29.10112507	      0.50791045	      8.36206666	     -0.14968141	      0.00000000	      0.00000000	    -52.39046001	      4.68458605	      7.57409731	     89.72903925	     -6.47536576	     32.28591800	     26.11172038	     25.66932938	      0.00000000	      0.00000000	     88.04482749	      8.22712498	     12.31140973	     26.70234724	     29.64250597	      0.00000000	      0.00000000
